<svg xmlns="http://www.w3.org/2000/svg" version="1.1" xmlns:xlink="http://www.w3.org/1999/xlink" xmlns:svgjs="http://svgjs.dev/svgjs" width="100%" height="100%" viewBox="0 0 1000 600"><rect width="1000" height="600" x="0" y="0" fill="#2f3c7e"/><g><rect width="333.3333333333333" height="333.3333333333333" rx="13.333333333333334" ry="13.333333333333334" y="237.72726900690918" fill="#fbeaeb" transform="matrix(0.5800328779703909,0,0,0.5800328779703909,0,65.43823345828176)" x="215.5050811767578"/><path d="M389.6717442469377 479.3939437428297L374.6717447010683 479.3939437428297L374.6717447010683 329.39394828413583L389.6717442469377 329.39394828413583L389.6717442469377 479.3939437428297Z " fill="#2f3c7b" transform="matrix(0.5800328779703909,0,0,0.5800328779703909,0,65.43823345828176)"/><path d="M646.8971050053124 476.6475511914608L632.1717447062649 476.6475511914608L632.1717447062649 329.3939482009878L646.8971050053124 329.3939482009878L646.8971050053124 476.6475511914608ZM767.008129190597 411.5521092345612L767.008129190597 411.5521092345612L767.008129190597 476.6475511914608L752.2827688915496 476.6475511914608L752.2827688915496 414.4738077065944Q752.2827688915496 405.8547972140965 748.0755230918219 398.8135038964965Q743.868277292094 391.7722105788965 736.826983974494 387.5649647791687Q729.7856906568941 383.3577189794409 721.1666801643961 383.3577189794409L721.1666801643961 383.3577189794409Q712.6353206260592 383.3577189794409 705.5355933390185 387.5649647791687Q698.4358660519779 391.7722105788965 694.22862025225 398.8135038964965Q690.0213744525222 405.8547972140965 690.0213744525222 414.4738077065944L690.0213744525222 414.4738077065944L690.0213744525222 476.6475511914608L675.296014153475 476.6475511914608L675.296014153475 371.46640619826576L690.0213744525222 371.46640619826576L690.0213744525222 385.98724760427075Q695.6018185341056 377.9817937908998 704.5422158585272 373.24864226620605Q713.4826131829489 368.5154907415123 724.0007276822682 368.5154907415123L724.0007276822682 368.5154907415123Q735.8920404634434 368.5154907415123 745.6505133600343 374.300453716138Q755.4382032413455 380.08541669076374 761.2231662159712 389.8731065720749Q767.008129190597 399.6607964533861 767.008129190597 411.5521092345612ZM820.5628621829653 478.63430615244334L820.5628621829653 478.63430615244334Q811.9146347057471 478.429787259401 803.7338789840542 475.4788718026475Q795.5239062776409 472.5571733306143 789.4175564710915 467.5026349739969Q783.3112066645422 462.44809661737946 780.6816780397123 456.0203599789064L780.6816780397123 456.0203599789064L793.420283377777 450.5567838362044Q795.0856515068359 454.67637868177115 799.672718107928 458.09476589405Q804.2597847090201 461.51315310632884 810.1323986378069 463.55834203675204Q816.034229551314 465.6035309671753 821.8191925259397 465.6035309671753L821.8191925259397 465.6035309671753Q828.2177121796923 465.6035309671753 833.7981562612757 463.49990806731137Q839.378600342859 461.3962851674475 842.9138554940193 457.4519922302027Q846.4198936604591 453.5076992929579 846.4198936604591 448.1317741044168L846.4198936604591 448.1317741044168Q846.4198936604591 442.3468111297911 842.6509026315363 439.0452918563936Q838.8526946178931 435.74377258299603 833.0677316432674 433.78623460673384Q827.2827686686418 431.82869663047154 821.1764188620923 430.04646056253137L821.1764188620923 430.04646056253137Q810.0447476836458 427.0078941516168 801.5133881453089 423.326554076855Q792.982028606972 419.64521400209316 788.2196600975578 413.9186849969081Q783.4280746034235 408.1629390070027 783.4280746034235 399.13489072842015L783.4280746034235 399.13489072842015Q783.4280746034235 389.55171974015127 788.8332167766848 382.5688603919919Q794.2675759346666 375.55678405911226 803.0326713507662 371.7293590607488Q811.8269837515861 367.9019340623853 821.8191925259397 367.9019340623853L821.8191925259397 367.9019340623853Q834.6454488181654 367.9019340623853 845.2219972869254 373.45316115924834Q855.7985457556857 379.0336052408318 860.5316972803795 388.295389397177L860.5316972803795 388.295389397177L848.6403844992044 395.336682714777Q846.7412804923828 391.0417859608882 842.6509026315363 387.8863516110923Q838.5313077859695 384.7309172612965 833.3306845057505 382.91946420863593Q828.1300612255313 381.1372281406957 822.7541360369903 381.04957718653463L822.7541360369903 381.04957718653463Q816.034229551314 380.93270924765335 810.2492665766881 382.97789817807654Q804.4643036020625 385.0230871084998 800.9290484509023 389.0258140151853Q797.4230102844624 393.0285409218708 797.4230102844624 398.8135038964965L797.4230102844624 398.8135038964965Q797.4230102844624 404.59846687112224 800.8706144814616 407.6078162973164Q804.3474356631812 410.58794873879026 810.3077005461289 412.42861877617116Q816.2387484443562 414.26928881355207 823.7182965327612 416.6942985453396L823.7182965327612 416.6942985453396Q833.2722505363098 419.73286495625416 841.6867421357654 423.64794090877865Q850.101233735221 427.5337998765828 855.2726400307197 433.3187628512085Q860.4148293414981 439.1037258258342 860.2979614026168 447.9272552113745L860.2979614026168 447.9272552113745Q860.2979614026168 457.393558260762 854.6298663668724 464.434851578362Q848.9617713311279 471.50536188068236 839.9045060678251 475.21591894016456Q830.8472408045222 478.95569298436703 820.5628621829653 478.63430615244334ZM877.3606804792906 476.6475511914608L877.3606804792906 371.46640619826576L892.086040778338 371.46640619826576L892.086040778338 476.6475511914608L877.3606804792906 476.6475511914608ZM884.8110115829753 353.05970582445667L884.8110115829753 353.05970582445667Q881.2465394470948 353.05970582445667 878.7630957458666 350.6931300621098Q876.3088690293587 348.32655429976285 876.3088690293587 344.7620821638824L876.3088690293587 344.7620821638824Q876.3088690293587 341.1683930432816 878.7630957458666 338.80181728093464Q881.2465394470948 336.43524151858776 884.8110115829753 336.43524151858776L884.8110115829753 336.43524151858776Q888.2878327646948 336.43524151858776 890.7712764659229 338.80181728093464Q893.2255031824309 341.1683930432816 893.2255031824309 344.7620821638824L893.2255031824309 344.7620821638824Q893.2255031824309 348.32655429976285 890.8004934506434 350.6931300621098Q888.404700703576 353.05970582445667 884.8110115829753 353.05970582445667ZM962.5574079237786 479.393947755172L962.5574079237786 479.393947755172Q948.0365665177737 479.393947755172 936.0868197671579 471.914399666767Q924.1662900012625 464.434851578362 917.0665627142218 451.87154814861924Q909.9668354271811 439.30824471887655 909.9668354271811 424.0569786948633L909.9668354271811 424.0569786948633Q909.9668354271811 412.48705274561183 914.0572132880275 402.43641000181765Q918.147591148874 392.38576725802346 925.3641863747961 384.76013424601683Q932.580781600718 377.13450123401014 942.1347356042666 372.8396044801214Q951.7179065925354 368.5154907415123 962.5574079237786 368.5154907415123L962.5574079237786 368.5154907415123Q974.2149848271911 368.5154907415123 984.0611086779429 373.16099131204504Q993.8780155439745 377.77727489785747 1000.9777428310151 386.07489855843176Q1008.0774701180558 394.4017392037264 1011.7295932080973 405.53341038217286Q1015.3524993134184 416.6942985453396 1014.7097256495712 429.63742277644667L1014.7097256495712 429.63742277644667L925.5102712983977 429.63742277644667Q926.7958186260923 439.62963155080024 931.8795739674301 447.51821742528983Q936.9925462934882 455.4068032997795 944.9395661374184 459.96465291615124Q952.8573689966283 464.5517195172433 962.5574079237786 464.66858745612467L962.5574079237786 464.66858745612467Q973.0755224230982 464.66858745612467 981.5192310072741 459.1757943287023Q989.9921565761704 453.7122181860002 995.163562871669 444.15826418245166L995.163562871669 444.15826418245166L1010.0934420637586 447.60586837945084Q1003.782573364167 461.60080406048985 991.0439680261022 470.48276741547073Q978.3345796727579 479.393947755172 962.5574079237786 479.393947755172ZM925.101233512313 417.7461099952716L925.101233512313 417.7461099952716L999.8967143963628 417.7461099952716Q999.1370727936342 407.95842011396036 993.9364495134151 399.8068813769878Q988.735826233196 391.65534264001514 980.5258535267827 386.7761061917197Q972.3158808203694 381.86765275870397 962.5574079237786 381.86765275870397L962.5574079237786 381.86765275870397Q952.7697180424674 381.86765275870397 944.6766132749354 386.6592382528384Q936.5542915226831 391.45082374697284 931.4121022119048 399.60236248394546Q926.2699129011263 407.75390122091807 925.101233512313 417.7461099952716ZM1047.4327485363428 476.6475511914608L1032.7073882372956 476.6475511914608L1032.7073882372956 371.46640619826576L1047.4327485363428 371.46640619826576L1047.4327485363428 385.98724760427075Q1053.1008435720873 377.9817937908998 1061.953589942348 373.24864226620605Q1070.7771193278882 368.5154907415123 1081.2952338272075 368.5154907415123L1081.2952338272075 368.5154907415123Q1093.1865466083827 368.5154907415123 1103.0618874438549 374.3588876855787Q1112.9664452640475 380.202284629645 1118.5176723609106 389.8731065720749L1118.5176723609106 389.8731065720749Q1124.0981164424938 380.202284629645 1133.8858063238051 374.3588876855787Q1143.6734962051164 368.5154907415123 1155.5648089862914 368.5154907415123L1155.5648089862914 368.5154907415123Q1167.426904782746 368.5154907415123 1177.2145946640574 374.300453716138Q1187.0022845453686 380.08541669076374 1192.7872475199943 389.8731065720749Q1198.5722104946199 399.6607964533861 1198.5722104946199 411.5521092345612L1198.5722104946199 411.5521092345612L1198.5722104946199 476.6475511914608L1183.8468501955726 476.6475511914608L1183.8468501955726 414.79519453851805Q1183.8468501955726 406.3807029390625 1179.7564723347264 399.22254168258115Q1175.6368774891594 392.09359741082017 1168.7416690951611 387.71104970277037Q1161.8756776858831 383.3577189794409 1153.4611860864275 383.3577189794409L1153.4611860864275 383.3577189794409Q1145.0466944869718 383.3577189794409 1138.1514860929738 387.3896628708467Q1131.2562776989753 391.45082374697284 1127.1658998381288 398.5505510340135Q1123.046304992562 405.65027832105415 1123.046304992562 414.79519453851805L1123.046304992562 414.79519453851805L1123.046304992562 476.6475511914608L1108.3209446935148 476.6475511914608L1108.3209446935148 414.79519453851805Q1108.3209446935148 405.65027832105415 1104.230566832668 398.5505510340135Q1100.1109719871015 391.45082374697284 1093.1865466083827 387.3896628708467Q1086.2329042449437 383.3577189794409 1077.818412645488 383.3577189794409L1077.818412645488 383.3577189794409Q1069.520788984914 383.3577189794409 1062.5671466214749 387.71104970277037Q1055.6427212427561 392.09359741082017 1051.5231263971893 399.22254168258115Q1047.4327485363428 406.3807029390625 1047.4327485363428 414.79519453851805L1047.4327485363428 414.79519453851805L1047.4327485363428 476.6475511914608ZM1263.784520390401 479.393947755172L1263.784520390401 479.393947755172Q1249.263678984396 479.393947755172 1237.3431492185005 471.914399666767Q1225.3934024678847 464.434851578362 1218.293675180844 451.87154814861924Q1211.1939478938034 439.30824471887655 1211.1939478938034 424.0569786948633L1211.1939478938034 424.0569786948633Q1211.1939478938034 412.48705274561183 1215.28432575465 402.43641000181765Q1219.4039206002167 392.38576725802346 1226.5912988414184 384.76013424601683Q1233.8078940673404 377.13450123401014 1243.391065055609 372.8396044801214Q1252.9450190591579 368.5154907415123 1263.784520390401 368.5154907415123L1263.784520390401 368.5154907415123Q1275.4713142785338 368.5154907415123 1285.2882211445653 373.16099131204504Q1295.134344995317 377.77727489785747 1302.2340722823578 386.07489855843176Q1309.3337995693985 394.4017392037264 1312.9567056747196 405.53341038217286Q1316.5796117800408 416.6942985453396 1315.9660551009138 429.63742277644667L1315.9660551009138 429.63742277644667L1226.7666007497405 429.63742277644667Q1228.0229310927148 439.62963155080024 1233.1359034187726 447.51821742528983Q1238.2196587601106 455.4068032997795 1246.166678604041 459.96465291615124Q1254.113698447971 464.5517195172433 1263.784520390401 464.66858745612467L1263.784520390401 464.66858745612467Q1274.3026348897206 464.66858745612467 1282.7755604586168 459.1757943287023Q1291.248486027513 453.7122181860002 1296.3906753382914 444.15826418245166L1296.3906753382914 444.15826418245166L1311.3205545303808 447.60586837945084Q1305.0096858307893 461.60080406048985 1292.300297477445 470.48276741547073Q1279.5616921393803 479.393947755172 1263.784520390401 479.393947755172ZM1226.3283459789354 417.7461099952716L1226.3283459789354 417.7461099952716L1301.1238268629852 417.7461099952716Q1300.3934022449769 407.95842011396036 1295.192778964758 399.8068813769878Q1289.9629386998183 391.65534264001514 1281.7821829781255 386.7761061917197Q1273.5722102717123 381.86765275870397 1263.784520390401 381.86765275870397L1263.784520390401 381.86765275870397Q1253.9968305090897 381.86765275870397 1245.903725741558 386.6592382528384Q1237.8106209740258 391.45082374697284 1232.639214678527 399.60236248394546Q1227.4970253677486 407.75390122091807 1226.3283459789354 417.7461099952716ZM1337.0022840995528 479.393947755172L1337.0022840995528 479.393947755172Q1333.5254629178332 479.393947755172 1331.1004531860458 476.9105040539438Q1328.6754434542581 474.42706035271556 1328.6754434542581 470.8625882168351L1328.6754434542581 470.8625882168351Q1328.6754434542581 467.5026349739969 1331.1004531860458 465.0191912727687Q1333.5254629178332 462.56496455626075 1337.0022840995528 462.56496455626075L1337.0022840995528 462.56496455626075Q1340.5667562354333 462.56496455626075 1343.0501999366616 465.0191912727687Q1345.5044266531695 467.5026349739969 1345.5044266531695 470.8625882168351L1345.5044266531695 470.8625882168351Q1345.5044266531695 474.42706035271556 1343.0501999366616 476.9105040539438Q1340.5667562354333 479.393947755172 1337.0022840995528 479.393947755172ZM1370.747901451536 476.6475511914608L1370.747901451536 371.46640619826576L1385.4732617505836 371.46640619826576L1385.4732617505836 476.6475511914608L1370.747901451536 476.6475511914608ZM1378.227449539941 353.05970582445667L1378.227449539941 353.05970582445667Q1374.6337604193404 353.05970582445667 1372.1795337028325 350.6931300621098Q1369.6960900016043 348.32655429976285 1369.6960900016043 344.7620821638824L1369.6960900016043 344.7620821638824Q1369.6960900016043 341.1683930432816 1372.1795337028325 338.80181728093464Q1374.6337604193404 336.43524151858776 1378.227449539941 336.43524151858776L1378.227449539941 336.43524151858776Q1381.7042707216606 336.43524151858776 1384.1584974381685 338.80181728093464Q1386.6419411393967 341.1683930432816 1386.6419411393967 344.7620821638824L1386.6419411393967 344.7620821638824Q1386.6419411393967 348.32655429976285 1384.216931407609 350.6931300621098Q1381.7919216758219 353.05970582445667 1378.227449539941 353.05970582445667ZM1455.9446288960244 479.393947755172L1455.9446288960244 479.393947755172Q1441.423787490019 479.393947755172 1429.5032577241236 471.914399666767Q1417.5535109735079 464.434851578362 1410.4537836864672 451.87154814861924Q1403.3540563994266 439.30824471887655 1403.3540563994266 424.0569786948633L1403.3540563994266 424.0569786948633Q1403.3540563994266 412.48705274561183 1407.4736512449936 402.43641000181765Q1411.56402910584 392.38576725802346 1418.7806243317618 384.76013424601683Q1425.9680025729635 377.13450123401014 1435.5511735612324 372.8396044801214Q1445.105127564781 368.5154907415123 1455.9446288960244 368.5154907415123L1455.9446288960244 368.5154907415123Q1470.4654703020292 368.5154907415123 1482.415217052645 375.99503882991723Q1494.3357468185404 383.4453699336019 1501.435474105581 396.06710733278527Q1508.5352013926217 408.6888447319687 1508.5352013926217 424.0569786948633L1508.5352013926217 424.0569786948633Q1508.5352013926217 435.5100367052334 1504.444823531775 445.5022454795869Q1500.3252286862084 455.49445425394043 1493.1378504450067 463.12008726594706Q1485.9212552190847 470.74572027795375 1476.3965182002567 475.0698340165628Q1466.9009981661486 479.393947755172 1455.9446288960244 479.393947755172ZM1455.9446288960244 464.66858745612467L1455.9446288960244 464.66858745612467Q1466.667262288386 464.66858745612467 1475.2570557961635 459.0297094051006Q1483.8176323192208 453.39083135407657 1488.8137367063978 444.15826418245166Q1493.8098410935743 434.8964800261064 1493.8098410935743 424.0569786948633L1493.8098410935743 424.0569786948633Q1493.8098410935743 413.0129584705778 1488.7553027369568 403.6927403447919Q1483.7299813650598 394.4017392037264 1475.1401878572822 388.82129512214294Q1466.5796113342249 383.24085104055956 1455.9446288960244 383.24085104055956L1455.9446288960244 383.24085104055956Q1445.2219955036624 383.24085104055956 1436.661418980605 388.8797290915836Q1428.0716254728275 394.4893901578873 1423.0755210856507 403.75117431423257Q1418.0794166984738 413.0129584705778 1418.0794166984738 424.0569786948633L1418.0794166984738 424.0569786948633Q1418.0794166984738 435.4223857510724 1423.2508229939726 444.62573593797697Q1428.3930123047512 453.82908612488154 1437.0120227972488 459.23422829814297Q1445.631033289747 464.66858745612467 1455.9446288960244 464.66858745612467Z " fill="#FBEAE" transform="matrix(0.5800328779703909,0,0,0.5800328779703909,0,65.43823345828176)"/></g></svg>