<svg xmlns="http://www.w3.org/2000/svg" version="1.1" xmlns:xlink="http://www.w3.org/1999/xlink" xmlns:svgjs="http://svgjs.dev/svgjs" width="100%" height="100%" viewBox="0 0 1000 600"><rect width="1000" height="600" x="0" y="0" fill="#2f3c7e"/><g><rect width="333.3333333333333" height="333.3333333333333" rx="13.333333333333334" ry="13.333333333333334" y="205.64721207058432" fill="#fbeaeb" transform="matrix(0.6814775640371511,0,0,0.6814775640371511,0,46.27645735057612)" x="183.42501831054688"/><path d="M357.59167863494446 447.313873387143L342.59167908907506 447.313873387143L342.59167908907506 297.3138779284492L357.59167863494446 297.3138779284492L357.59167863494446 447.313873387143Z " fill="#2f3c7b" transform="matrix(0.6814775640371511,0,0,0.6814775640371511,0,46.27645735057612)"/><path d="M614.8170393933191 444.5674808357741L600.0916790942717 444.5674808357741L600.0916790942717 297.3138778453011L614.8170393933191 297.3138778453011L614.8170393933191 444.5674808357741ZM734.9280635786038 379.4720388788745L734.9280635786038 379.4720388788745L734.9280635786038 444.5674808357741L720.2027032795563 444.5674808357741L720.2027032795563 382.3937373509077Q720.2027032795563 373.7747268584098 715.9954574798287 366.7334335408098Q711.7882116801009 359.6921402232098 704.7469183625008 355.484894423482Q697.7056250449009 351.2776486237542 689.0866145524028 351.2776486237542L689.0866145524028 351.2776486237542Q680.555255014066 351.2776486237542 673.4555277270254 355.484894423482Q666.3558004399846 359.6921402232098 662.1485546402569 366.7334335408098Q657.941308840529 373.7747268584098 657.941308840529 382.3937373509077L657.941308840529 382.3937373509077L657.941308840529 444.5674808357741L643.2159485414818 444.5674808357741L643.2159485414818 339.38633584257906L657.941308840529 339.38633584257906L657.941308840529 353.90717724858405Q663.5217529221125 345.9017234352131 672.4621502465341 341.16857191051935Q681.4025475709556 336.4354203858256 691.9206620702751 336.4354203858256L691.9206620702751 336.4354203858256Q703.8119748514503 336.4354203858256 713.570447748041 342.2203833604513Q723.3581376293523 348.00534633507704 729.1431006039779 357.7930362163882Q734.9280635786038 367.5807260976994 734.9280635786038 379.4720388788745ZM788.4827965709721 446.55423579675664L788.4827965709721 446.55423579675664Q779.834569093754 446.3497169037143 771.653813372061 443.3988014469608Q763.4438406656477 440.4771029749276 757.3374908590984 435.4225646183102Q751.231141052549 430.36802626169276 748.6016124277191 423.9402896232197L748.6016124277191 423.9402896232197L761.3402177657838 418.4767134805177Q763.0055858948426 422.59630832608445 767.5926524959348 426.0146955383633Q772.1797190970269 429.43308275064214 778.0523330258136 431.47827168106534Q783.9541639393208 433.5234606114886 789.7391269139464 433.5234606114886L789.7391269139464 433.5234606114886Q796.137646567699 433.5234606114886 801.7180906492824 431.41983771162467Q807.2985347308659 429.3162148117608 810.8337898820262 425.371921874516Q814.339828048466 421.4276289372712 814.339828048466 416.0517037487301L814.339828048466 416.0517037487301Q814.339828048466 410.2667407741044 810.5708370195432 406.9652215007069Q806.7726290059 403.66370222730933 800.9876660312741 401.70616425104714Q795.2027030566485 399.74862627478484 789.0963532500991 397.96639020684466L789.0963532500991 397.96639020684466Q777.9646820716528 394.9278237959301 769.4333225333157 391.2464837211683Q760.9019629949787 387.56514364640645 756.1395944855647 381.8386146412214Q751.3480089914303 376.082868651316 751.3480089914303 367.05482037273345L751.3480089914303 367.05482037273345Q751.3480089914303 357.47164938446457 756.7531511646916 350.4887900363052Q762.1875103226735 343.47671370342556 770.952605738773 339.6492887050621Q779.7469181395929 335.8218637066986 789.7391269139464 335.8218637066986L789.7391269139464 335.8218637066986Q802.5653832061721 335.8218637066986 813.1419316749323 341.37309080356164Q823.7184801436924 346.9535348851451 828.4516316683862 356.2153190414903L828.4516316683862 356.2153190414903L816.5603188872112 363.2566123590903Q814.6612148803895 358.9617156052015 810.5708370195432 355.8062812554056Q806.4512421739762 352.6508469056098 801.2506188937573 350.83939385294923Q796.0499956135382 349.057157785009 790.6740704249971 348.96950683084793L790.6740704249971 348.96950683084793Q783.9541639393208 348.85263889196665 778.1692009646949 350.89782782238984Q772.3842379900693 352.9430167528131 768.848982838909 356.9457436594986Q765.3429446724692 360.9484705661841 765.3429446724692 366.7334335408098L765.3429446724692 366.7334335408098Q765.3429446724692 372.51839651543554 768.7905488694685 375.5277459416297Q772.267370051188 378.50787838310356 778.2276349341357 380.34854842048446Q784.158682832363 382.18921845786537 791.6382309207679 384.6142281896529L791.6382309207679 384.6142281896529Q801.1921849243165 387.65279460056746 809.6066765237722 391.56787055309195Q818.0211681232277 395.4537295208961 823.1925744187265 401.2386924955218Q828.3347637295049 407.0236554701475 828.2178957906235 415.8471848556878L828.2178957906235 415.8471848556878Q828.2178957906235 425.3134879050753 822.5498007548792 432.3547812226753Q816.8817057191347 439.42529152499566 807.8244404558318 443.13584858447786Q798.7671751925291 446.87562262868033 788.4827965709721 446.55423579675664ZM845.2806148672973 444.5674808357741L845.2806148672973 339.38633584257906L860.0059751663448 339.38633584257906L860.0059751663448 444.5674808357741L845.2806148672973 444.5674808357741ZM852.730945970982 320.97963546876997L852.730945970982 320.97963546876997Q849.1664738351017 320.97963546876997 846.6830301338734 318.6130597064231Q844.2288034173655 316.24648394407615 844.2288034173655 312.6820118081957L844.2288034173655 312.6820118081957Q844.2288034173655 309.0883226875949 846.6830301338734 306.721746925248Q849.1664738351017 304.3551711629011 852.730945970982 304.3551711629011L852.730945970982 304.3551711629011Q856.2077671527015 304.3551711629011 858.6912108539298 306.721746925248Q861.1454375704377 309.0883226875949 861.1454375704377 312.6820118081957L861.1454375704377 312.6820118081957Q861.1454375704377 316.24648394407615 858.7204278386503 318.6130597064231Q856.3246350915829 320.97963546876997 852.730945970982 320.97963546876997ZM930.4773423117854 447.3138773994853L930.4773423117854 447.3138773994853Q915.9565009057803 447.3138773994853 904.0067541551646 439.8343293110803Q892.0862243892693 432.3547812226753 884.9864971022287 419.79147779293254Q877.886769815188 407.22817436318985 877.886769815188 391.9769083391766L877.886769815188 391.9769083391766Q877.886769815188 380.40698238992513 881.9771476760343 370.35633964613095Q886.0675255368808 360.30569690233676 893.2841207628028 352.68006389033013Q900.5007159887248 345.05443087832344 910.0546699922734 340.7595341244347Q919.6378409805423 336.4354203858256 930.4773423117854 336.4354203858256L930.4773423117854 336.4354203858256Q942.1349192151979 336.4354203858256 951.9810430659497 341.08092095635834Q961.7979499319813 345.69720454217077 968.897677219022 353.99482820274505Q975.9974045060626 362.3216688480397 979.649527596104 373.45334002648616Q983.2724337014254 384.6142281896529 982.6296600375781 397.55735242075997L982.6296600375781 397.55735242075997L893.4302056864044 397.55735242075997Q894.7157530140992 407.54956119511354 899.799508355437 415.43814706960313Q904.912480681495 423.3267329440928 912.8595005254253 427.88458256046454Q920.7773033846352 432.4716491615566 930.4773423117854 432.58851710043797L930.4773423117854 432.58851710043797Q940.995456811105 432.58851710043797 949.439165395281 427.0957239730156Q957.9120909641772 421.6321478303135 963.0834972596758 412.07819382676496L963.0834972596758 412.07819382676496L978.0133764517655 415.52579802376414Q971.7025077521739 429.52073370480315 958.963902414109 438.40269705978403Q946.2545140607647 447.3138773994853 930.4773423117854 447.3138773994853ZM893.0211679003198 385.6660396395849L893.0211679003198 385.6660396395849L967.8166487843696 385.6660396395849Q967.057007181641 375.87834975827366 961.8563839014219 367.7268110213011Q956.655760621203 359.57527228432843 948.4457879147894 354.696035836033Q940.2358152083764 349.78758240301727 930.4773423117854 349.78758240301727L930.4773423117854 349.78758240301727Q920.6896524304743 349.78758240301727 912.5965476629422 354.5791678971517Q904.4742259106899 359.37075339128614 899.3320365999116 367.52229212825875Q894.1898472891332 375.67383086523137 893.0211679003198 385.6660396395849ZM1015.3526829243497 444.5674808357741L1000.6273226253024 444.5674808357741L1000.6273226253024 339.38633584257906L1015.3526829243497 339.38633584257906L1015.3526829243497 353.90717724858405Q1021.0207779600942 345.9017234352131 1029.8735243303547 341.16857191051935Q1038.697053715895 336.4354203858256 1049.2151682152144 336.4354203858256L1049.2151682152144 336.4354203858256Q1061.1064809963896 336.4354203858256 1070.9818218318617 342.278817329892Q1080.8863796520543 348.1222142739583 1086.4376067489175 357.7930362163882L1086.4376067489175 357.7930362163882Q1092.0180508305007 348.1222142739583 1101.805740711812 342.278817329892Q1111.593430593123 336.4354203858256 1123.4847433742982 336.4354203858256L1123.4847433742982 336.4354203858256Q1135.346839170753 336.4354203858256 1145.1345290520642 342.2203833604513Q1154.9222189333755 348.00534633507704 1160.707181908001 357.7930362163882Q1166.4921448826267 367.5807260976994 1166.4921448826267 379.4720388788745L1166.4921448826267 379.4720388788745L1166.4921448826267 444.5674808357741L1151.7667845835795 444.5674808357741L1151.7667845835795 382.71512418283135Q1151.7667845835795 374.3006325833758 1147.676406722733 367.14247132689445Q1143.5568118771662 360.01352705513347 1136.661603483168 355.63097934708367Q1129.79561207389 351.2776486237542 1121.3811204744343 351.2776486237542L1121.3811204744343 351.2776486237542Q1112.9666288749786 351.2776486237542 1106.0714204809804 355.30959251516Q1099.176212086982 359.37075339128614 1095.0858342261356 366.4704806783268Q1090.9662393805688 373.57020796536744 1090.9662393805688 382.71512418283135L1090.9662393805688 382.71512418283135L1090.9662393805688 444.5674808357741L1076.2408790815214 444.5674808357741L1076.2408790815214 382.71512418283135Q1076.2408790815214 373.57020796536744 1072.1505012206749 366.4704806783268Q1068.0309063751083 359.37075339128614 1061.1064809963896 355.30959251516Q1054.1528386329505 351.2776486237542 1045.7383470334948 351.2776486237542L1045.7383470334948 351.2776486237542Q1037.4407233729207 351.2776486237542 1030.4870810094817 355.63097934708367Q1023.562655630763 360.01352705513347 1019.4430607851962 367.14247132689445Q1015.3526829243497 374.3006325833758 1015.3526829243497 382.71512418283135L1015.3526829243497 382.71512418283135L1015.3526829243497 444.5674808357741ZM1231.7044547784078 447.3138773994853L1231.7044547784078 447.3138773994853Q1217.1836133724028 447.3138773994853 1205.2630836065073 439.8343293110803Q1193.3133368558915 432.3547812226753 1186.2136095688509 419.79147779293254Q1179.1138822818102 407.22817436318985 1179.1138822818102 391.9769083391766L1179.1138822818102 391.9769083391766Q1179.1138822818102 380.40698238992513 1183.2042601426567 370.35633964613095Q1187.3238549882235 360.30569690233676 1194.5112332294252 352.68006389033013Q1201.7278284553472 345.05443087832344 1211.3109994436159 340.7595341244347Q1220.8649534471647 336.4354203858256 1231.7044547784078 336.4354203858256L1231.7044547784078 336.4354203858256Q1243.3912486665406 336.4354203858256 1253.2081555325722 341.08092095635834Q1263.0542793833238 345.69720454217077 1270.1540066703647 353.99482820274505Q1277.253733957405 362.3216688480397 1280.8766400627264 373.45334002648616Q1284.4995461680478 384.6142281896529 1283.8859894889206 397.55735242075997L1283.8859894889206 397.55735242075997L1194.6865351377471 397.55735242075997Q1195.9428654807214 407.54956119511354 1201.0558378067794 415.43814706960313Q1206.1395931481172 423.3267329440928 1214.0866129920478 427.88458256046454Q1222.0336328359779 432.4716491615566 1231.7044547784078 432.58851710043797L1231.7044547784078 432.58851710043797Q1242.2225692777274 432.58851710043797 1250.6954948466237 427.0957239730156Q1259.16842041552 421.6321478303135 1264.3106097262983 412.07819382676496L1264.3106097262983 412.07819382676496L1279.2404889183877 415.52579802376414Q1272.9296202187961 429.52073370480315 1260.2202318654518 438.40269705978403Q1247.481626527387 447.3138773994853 1231.7044547784078 447.3138773994853ZM1194.2482803669423 385.6660396395849L1194.2482803669423 385.6660396395849L1269.043761250992 385.6660396395849Q1268.313336632984 375.87834975827366 1263.1127133527648 367.7268110213011Q1257.8828730878254 359.57527228432843 1249.7021173661324 354.696035836033Q1241.492144659719 349.78758240301727 1231.7044547784078 349.78758240301727L1231.7044547784078 349.78758240301727Q1221.9167648970965 349.78758240301727 1213.8236601295648 354.5791678971517Q1205.7305553620326 359.37075339128614 1200.5591490665338 367.52229212825875Q1195.4169597557554 375.67383086523137 1194.2482803669423 385.6660396395849Z " fill="#FBEAE" transform="matrix(0.6814775640371511,0,0,0.6814775640371511,0,46.27645735057612)"/></g></svg>